<?xml version="1.0" encoding="UTF-8" standalone="no"?>
<!-- Created with Inkscape (http://www.inkscape.org/) -->

<svg
   xmlns:dc="http://purl.org/dc/elements/1.1/"
   xmlns:cc="http://creativecommons.org/ns#"
   xmlns:rdf="http://www.w3.org/1999/02/22-rdf-syntax-ns#"
   xmlns:svg="http://www.w3.org/2000/svg"
   xmlns="http://www.w3.org/2000/svg"
   xmlns:sodipodi="http://sodipodi.sourceforge.net/DTD/sodipodi-0.dtd"
   xmlns:inkscape="http://www.inkscape.org/namespaces/inkscape"
   width="623.5448"
   height="311.91281"
   id="svg2"
   version="1.1"
   inkscape:version="0.48.4 r9939"
   sodipodi:docname="layers.svg">
  <defs
     id="defs4" />
  <sodipodi:namedview
     id="base"
     pagecolor="#ffffff"
     bordercolor="#666666"
     borderopacity="1.0"
     inkscape:pageopacity="0.0"
     inkscape:pageshadow="2"
     inkscape:zoom="1.979899"
     inkscape:cx="359.58447"
     inkscape:cy="158.54581"
     inkscape:document-units="px"
     inkscape:current-layer="layer10"
     showgrid="false"
     inkscape:window-width="1920"
     inkscape:window-height="1028"
     inkscape:window-x="0"
     inkscape:window-y="0"
     inkscape:window-maximized="1"
     fit-margin-top="0"
     fit-margin-left="0"
     fit-margin-right="0"
     fit-margin-bottom="0" />
  <metadata
     id="metadata7">
    <rdf:RDF>
      <cc:Work
         rdf:about="">
        <dc:format>image/svg+xml</dc:format>
        <dc:type
           rdf:resource="http://purl.org/dc/dcmitype/StillImage" />
        <dc:title></dc:title>
      </cc:Work>
    </rdf:RDF>
  </metadata>
  <g
     inkscape:label="Base"
     inkscape:groupmode="layer"
     id="layer1"
     transform="translate(-67.883728,-100.93361)">
    <rect
       style="fill:#000000;fill-opacity:0.91372549"
       id="rect2985"
       width="622.85712"
       height="102.85714"
       x="68.571426"
       y="100.93361" />
    <text
       xml:space="preserve"
       style="font-size:55.63280869px;font-style:normal;font-weight:normal;line-height:125%;letter-spacing:0px;word-spacing:0px;fill:#000000;fill-opacity:1;stroke:none;font-family:Sans"
       x="131.30643"
       y="172.81087"
       id="text2987"
       sodipodi:linespacing="125%"><tspan
         sodipodi:role="line"
         id="tspan2989"
         x="131.30643"
         y="172.81087"
         style="fill:#ffffff">Application layer</tspan></text>
    <rect
       style="fill:#000000;fill-opacity:0.91372549"
       id="rect2985-0"
       width="622.85712"
       height="102.85714"
       x="68.571434"
       y="205.21931" />
    <text
       xml:space="preserve"
       style="font-size:40px;font-style:normal;font-weight:normal;line-height:125%;letter-spacing:0px;word-spacing:0px;fill:#000000;fill-opacity:1;stroke:none;font-family:Sans"
       x="128.28937"
       y="256.36197"
       id="text3009"
       sodipodi:linespacing="125%"><tspan
         sodipodi:role="line"
         id="tspan3011"
         x="128.28937"
         y="256.36197" /></text>
    <rect
       style="fill:#000000;fill-opacity:0.91372549"
       id="rect2985-0-7"
       width="622.85712"
       height="102.85714"
       x="67.883728"
       y="309.98929" />
    <g
       id="g5214"
       transform="matrix(1.5545194,0,0,1.5545194,140.23621,269.32113)">
      <g
         id="rectangle" />
      <g
         id="carré" />
      <g
         inkscape:label="Text"
         id="layer6">
        <g
           transform="translate(-1.7266279,0.66553077)"
           id="compacte">
          <g
             id="g5002">
            <path
               id="path5004"
               d="m 59.979,30.636 c -15.341,0 -27.779,12.436 -27.779,27.778 0,15.344 12.438,27.783 27.779,27.783 15.344,0 27.782,-12.439 27.782,-27.783 C 87.76,43.071 75.322,30.636 59.979,30.636 z M 74.96,46.713 c -1.286,0.045 -2.173,-0.722 -2.215,-1.891 -0.013,-0.429 0.097,-0.803 0.391,-1.24 0.287,-0.561 0.348,-0.625 0.34,-0.87 -0.025,-0.735 -1.136,-0.764 -1.44,-0.749 -4.17,0.137 -5.269,5.766 -6.16,10.342 l -0.437,2.413 c 2.401,0.352 4.106,-0.082 5.057,-0.697 1.339,-0.868 -0.374,-1.761 -0.159,-2.75 0.22,-1.008 1.136,-1.493 1.865,-1.514 1.019,-0.024 1.747,1.032 1.724,2.105 -0.037,1.773 -2.392,4.212 -7.099,4.113 -0.574,-0.014 -1.102,-0.054 -1.594,-0.113 l -0.888,4.903 c -0.796,3.713 -1.853,8.786 -5.632,13.212 -3.248,3.86 -6.542,4.46 -8.019,4.51 -2.76,0.093 -4.591,-1.378 -4.657,-3.343 -0.065,-1.902 1.618,-2.942 2.723,-2.979 1.474,-0.05 2.493,1.018 2.532,2.249 0.037,1.041 -0.506,1.366 -0.865,1.563 -0.241,0.192 -0.603,0.39 -0.589,0.82 0.009,0.183 0.208,0.604 0.819,0.584 1.168,-0.039 1.942,-0.616 2.484,-1.002 2.689,-2.241 3.725,-6.147 5.08,-13.257 l 0.284,-1.724 c 0.462,-2.313 0.975,-4.891 1.757,-7.459 -1.897,-1.427 -3.033,-3.197 -5.582,-3.888 -1.748,-0.475 -2.814,-0.072 -3.563,0.875 -0.887,1.122 -0.592,2.582 0.266,3.439 l 1.415,1.564 c 1.736,2.008 2.686,3.568 2.329,5.669 -0.565,3.353 -4.562,5.924 -9.283,4.473 -4.031,-1.242 -4.785,-4.097 -4.301,-5.669 0.427,-1.384 1.526,-1.645 2.602,-1.314 1.151,0.354 1.602,1.753 1.272,2.83 -0.037,0.113 -0.096,0.306 -0.217,0.563 -0.133,0.297 -0.38,0.556 -0.488,0.903 -0.259,0.843 0.898,1.442 1.705,1.69 1.802,0.554 3.561,-0.389 4.008,-1.848 0.415,-1.342 -0.434,-2.277 -0.786,-2.637 l -1.706,-1.828 c -0.782,-0.871 -2.501,-3.296 -1.662,-6.021 0.322,-1.049 1.002,-2.165 1.991,-2.901 2.085,-1.554 4.352,-1.81 6.511,-1.19 2.794,0.806 4.137,2.653 5.878,4.08 0.973,-2.857 2.323,-5.655 4.354,-8.014 1.833,-2.152 4.297,-3.708 7.12,-3.805 2.82,-0.092 4.951,1.185 5.022,3.208 0.028,0.864 -0.468,2.539 -2.187,2.595 z"
               inkscape:connector-curvature="0"
               style="fill:#ffffff" />
            <g
               id="g5006">
              <g
                 id="g5008">
                <path
                   id="path5010"
                   d="m 200.637,50.598 c 6.404,0 10.7,4.628 10.7,11.031 0,6.033 -4.379,11.031 -10.7,11.031 -6.362,0 -10.741,-4.998 -10.741,-11.031 0,-6.402 4.294,-11.031 10.741,-11.031 z m 0,18.925 c 4.544,0 6.567,-4.133 6.567,-7.895 0,-4.006 -2.437,-7.89 -6.567,-7.89 -4.172,0 -6.609,3.884 -6.609,7.89 -0.001,3.763 2.023,7.895 6.609,7.895 z"
                   inkscape:connector-curvature="0"
                   style="fill:#ffffff" />
              </g>
              <path
                 id="path5012"
                 d="m 189.363,52.559 v -1.465 h -5.578 V 49.09 c 0,-2.85 0.412,-5 3.759,-5 0.062,0 0.126,0.005 0.189,0.007 0.007,0 0.006,-0.01 0.015,-0.01 0.929,0.068 1.7,-0.688 1.754,-1.616 l 0.067,-1.272 c -0.783,-0.124 -1.614,-0.248 -2.602,-0.248 -5.743,0 -7.066,3.347 -7.066,8.47 v 1.674 h -4.959 v 1.636 c 0.127,0.848 0.853,1.5 1.738,1.5 0.004,0 0.008,0.005 0.013,0.005 h 3.208 v 17.93 h 2.141 c 0.003,0 0.002,-10e-4 0.005,-10e-4 0.89,0 1.618,-0.667 1.738,-1.522 V 54.235 h 3.884 c 0.916,-0.03 1.651,-0.762 1.694,-1.676 z"
                 inkscape:connector-curvature="0"
                 style="fill:#ffffff" />
              <path
                 id="path5014"
                 d="m 137.632,51.094 c -0.008,0 -0.01,0.004 -0.019,0.004 -0.82,0 -1.611,0.562 -1.957,1.323 l -5.345,16.109 h -0.083 L 125,52.428 c -0.341,-0.764 -1.138,-1.331 -1.96,-1.331 -0.009,0 -0.013,-0.004 -0.021,-0.004 h -2.708 l 7.147,19.667 c 0.249,0.703 0.745,1.777 0.745,2.231 0,0.412 -1.157,5.204 -4.628,5.204 -0.084,0 -0.173,-0.01 -0.258,-0.015 -0.885,-0.049 -1.554,0.57 -1.703,1.522 l -0.105,1.344 c 0.702,0.124 1.407,0.29 2.647,0.29 5.122,0 6.649,-4.67 8.097,-8.717 l 7.768,-21.527 h -2.389 z"
                 inkscape:connector-curvature="0"
                 style="fill:#ffffff" />
              <path
                 id="path5016"
                 d="m 112.944,55.374 c -3.208,-1.642 -6.716,-2.756 -6.778,-6.058 0.01,-3.507 3.231,-4.428 5.716,-4.424 0.01,-0.003 0.021,-0.003 0.026,-0.003 1.078,0 1.94,0.107 2.783,0.292 0.01,0 0.009,-0.013 0.024,-0.013 0.89,0.065 1.634,-0.631 1.74,-1.508 l 0.071,-1.273 c -1.628,-0.404 -3.329,-0.609 -4.81,-0.609 -5.4,0.033 -9.409,2.75 -9.423,7.934 0.009,4.532 3.064,6.29 6.348,7.88 3.223,1.549 6.754,2.828 6.783,6.569 -0.019,3.902 -3.786,5.341 -6.381,5.346 -1.518,-0.005 -3.166,-0.384 -4.553,-0.821 -0.871,-0.143 -1.585,0.624 -1.696,1.641 l -0.118,1.136 c 1.909,0.617 3.866,1.155 5.832,1.155 0,0 0.002,0 0.007,0 0.005,0 0.009,0 0.019,0 6.046,-0.044 10.747,-2.457 10.766,-8.719 -0.01,-4.835 -3.086,-6.864 -6.356,-8.525 z"
                 inkscape:connector-curvature="0"
                 style="fill:#ffffff" />
              <path
                 id="path5018"
                 d="m 171.684,72.165 c 0.002,0 0.002,-0.001 0.004,-0.001 0.839,0 1.537,-0.587 1.716,-1.375 V 58.656 c 0,-4.586 -1.94,-8.058 -7.315,-8.058 -1.898,0 -5.078,1.076 -6.524,4.091 -1.116,-2.851 -3.553,-4.091 -5.991,-4.091 -3.099,0 -5.207,1.116 -6.691,3.554 h -0.084 v -1.311 c -0.013,-0.964 -0.793,-1.743 -1.76,-1.743 -0.008,0 -0.012,-0.004 -0.019,-0.004 h -1.857 v 21.071 h 2.104 c 0.002,0 0.002,-0.001 0.003,-0.001 0.974,0 1.763,-0.79 1.763,-1.762 0,-0.026 0.008,-0.037 0.014,-0.054 v -8.8 c 0,-3.926 1.569,-7.81 5.535,-7.81 3.14,0 3.762,3.263 3.762,5.866 v 12.56 h 2.132 c 0.002,0 0.002,-0.001 0.007,-0.001 0.918,0 1.66,-0.706 1.743,-1.604 v -9.011 c 0,-3.926 1.571,-7.81 5.536,-7.81 3.14,0 3.761,3.263 3.761,5.866 v 12.56 h 2.161 z"
                 inkscape:connector-curvature="0"
                 style="fill:#ffffff" />
              <path
                 id="path5020"
                 d="m 231.698,72.165 c 0.004,0 0.004,-0.001 0.007,-0.001 0.945,0 1.709,-0.746 1.753,-1.682 V 59.646 c 0,-5.659 -2.439,-9.048 -7.893,-9.048 -2.933,0 -5.74,1.447 -6.9,3.844 h -0.081 v -1.574 c 0,-0.002 -0.003,-0.002 -0.003,-0.006 0,-0.976 -0.789,-1.764 -1.761,-1.764 -0.01,0 -0.013,-0.004 -0.021,-0.004 h -1.978 v 21.071 h 2.134 c 10e-4,0 10e-4,-0.001 0.007,-0.001 0.923,0 1.672,-0.716 1.744,-1.622 v -8.127 c 0,-5.123 1.985,-8.676 6.404,-8.676 3.391,0.206 4.461,2.601 4.461,7.519 v 10.907 h 2.127 z"
                 inkscape:connector-curvature="0"
                 style="fill:#ffffff" />
              <path
                 id="path5022"
                 d="m 252.605,51.094 c -0.006,0 -0.01,0.004 -0.021,0.004 -0.818,0 -1.612,0.562 -1.955,1.323 L 245.285,68.53 H 245.2 l -5.228,-16.102 c -0.342,-0.764 -1.139,-1.331 -1.962,-1.331 -0.006,0 -0.012,-0.004 -0.018,-0.004 h -2.708 l 7.147,19.667 c 0.249,0.703 0.747,1.777 0.747,2.231 0,0.412 -1.161,5.204 -4.631,5.204 -0.087,0 -0.172,-0.01 -0.259,-0.015 -0.884,-0.049 -1.552,0.57 -1.701,1.522 l -0.105,1.344 c 0.702,0.124 1.407,0.29 2.646,0.29 5.122,0 6.652,-4.67 8.099,-8.717 l 7.768,-21.527 h -2.39 z"
                 inkscape:connector-curvature="0"
                 style="fill:#ffffff" />
            </g>
          </g>
        </g>
      </g>
    </g>
  </g>
  <g
     inkscape:groupmode="layer"
     id="layer10"
     inkscape:label="2WP Layer"
     transform="translate(-67.883728,-100.93361)">
    <g
       id="g5807"
       transform="matrix(0.32763136,0,0,0.32763136,94.481197,204.04914)">
      <g
         style="display:inline"
         transform="translate(-26.486131,-29.004986)"
         id="layer1-6"
         inkscape:label="Layer 1" />
      <g
         inkscape:label="Text"
         id="layer9">
        <g
           transform="translate(37.897269,29.356114)"
           id="g5500">
          <g
             transform="translate(0,-488.09448)"
             id="layer3"
             style="display:none">
            <text
               x="366.88824"
               y="388.85663"
               id="text3766"
               xml:space="preserve"
               style="font-size:180.35551453px;font-style:normal;font-weight:normal;line-height:125%;letter-spacing:0px;word-spacing:0px;fill:#000000;fill-opacity:1;stroke:none;display:inline;font-family:Sans"
               sodipodi:linespacing="125%"><tspan
                 x="366.88824"
                 y="388.85663"
                 id="tspan3768">artens</tspan></text>
          </g>
          <g
             id="layer7"
             inkscape:label="Base">
            <g
               transform="matrix(7.8101557,0,0,7.8101557,-49.882279,-7906.3677)"
               id="layer1-0"
               style="fill:#ffffff;display:inline">
              <path
                 d="m 382.85715,485.21933 a 60,107.14286 0 1 1 -120,0 60,107.14286 0 1 1 120,0 z"
                 transform="matrix(0.26973953,0,0,0.15235633,-64.188669,954.9027)"
                 id="path3755"
                 style="fill:#ffffff;fill-opacity:0.91346154;stroke:none"
                 inkscape:connector-curvature="0" />
            </g>
          </g>
          <g
             id="layer8"
             inkscape:label="Text">
            <g
               transform="matrix(7.8101557,0,0,7.8101557,-46.563398,-5496.2245)"
               id="layer2"
               style="fill:#000000;display:inline">
              <text
                 x="10.213851"
                 y="726.52173"
                 id="text3762"
                 xml:space="preserve"
                 style="font-size:17.60937309px;font-style:normal;font-weight:normal;line-height:125%;letter-spacing:0px;word-spacing:0px;fill:#000000;fill-opacity:1;stroke:none;font-family:Sans"
                 sodipodi:linespacing="125%"><tspan
                   x="10.213851"
                   y="726.52173"
                   id="tspan3764"
                   style="fill:#000000">2m<tspan
   id="tspan5512"
   style="fill:#ffffff">artens Web Platform</tspan></tspan></text>
            </g>
          </g>
        </g>
      </g>
    </g>
    <path
       style="fill:#ffffff;fill-opacity:0.99215686;stroke:none"
       d="m 143.63443,297.01703 c -21.12827,-3.19196 -36.69959,-22.1536 -35.44453,-43.1618 1.33439,-22.33586 19.00508,-39.23662 41.00037,-39.21394 21.77456,0.0224 39.56633,17.03793 40.99339,39.20475 0.32317,5.01984 -0.66543,11.67306 -2.35096,15.82184 l -0.95917,2.36091 -0.0275,-8.48891 c -0.0321,-9.89119 -0.52583,-12.43129 -2.87249,-14.77795 -1.91759,-1.9176 -4.1615,-2.51536 -7.54027,-2.00868 -1.75694,0.26347 -2.82527,0.85043 -4.54231,2.49564 -1.23479,1.18314 -2.24507,1.89171 -2.24507,1.57461 0,-0.84909 -2.56178,-3.14498 -4.19976,-3.76385 -2.89677,-1.09448 -7.22955,-0.26235 -9.54508,1.83318 -0.84493,0.76463 -0.90238,0.73124 -0.90238,-0.52434 0,-1.25259 -0.14982,-1.34097 -2.27285,-1.34097 l -2.27284,0 0,12.6269 0,12.62691 2.27284,0 2.27285,0 0,-8.09744 c 0,-9.17821 0.44254,-10.96148 3.12633,-12.59774 2.26247,-1.37939 4.56669,-1.30832 6.31568,0.19481 l 1.41713,1.21792 0.15688,9.64122 0.15688,9.64123 2.24223,0 2.24223,0 0.0121,-7.19734 c 0.007,-3.95853 0.2157,-8.07503 0.46461,-9.14776 0.94614,-4.07771 4.97034,-6.33474 8.38842,-4.70477 2.33806,1.11494 2.74549,3.0184 2.74886,12.84238 l 0.003,8.20749 2.26202,0 2.26201,0 -0.59542,1.38896 c -1.12145,2.61603 -4.96292,8.27659 -7.35022,10.83085 -4.76184,5.09487 -12.71304,9.76778 -19.63094,11.53708 -4.54735,1.16302 -11.48324,1.5986 -15.58578,0.97881 l 0,0 z m -1.26269,-26.75601 0,-2.0203 -7.61757,0 -7.61757,0 6.11871,-6.43972 c 7.35205,-7.73777 8.83678,-10.30501 8.51695,-14.72666 -0.37803,-5.22623 -3.59109,-8.01315 -9.81432,-8.51269 -3.02881,-0.24312 -6.4184,0.28718 -9.41044,1.47228 -1.25026,0.49521 -1.38896,0.79622 -1.38896,3.01425 0,1.35526 0.0911,2.46411 0.20238,2.46411 0.11131,0 1.41664,-0.56258 2.90073,-1.25016 5.09023,-2.35834 9.3863,-2.13594 11.5362,0.59722 1.24175,1.57863 1.33752,4.63101 0.21349,6.80464 -0.44251,0.85572 -4.07906,4.93549 -8.08122,9.06615 -6.90118,7.12276 -7.27666,7.61455 -7.27666,9.53074 l 0,2.02045 10.85914,0 10.85914,0 0,-2.02031 z"
       id="path5839"
       inkscape:connector-curvature="0" />
  </g>
</svg>
